<?xml version="1.0" encoding="UTF-8" standalone="no"?>
<!-- Created with Inkscape (http://www.inkscape.org/) -->

<svg
   width="15.122936mm"
   height="12.469254mm"
   viewBox="0 0 15.122936 12.469254"
   version="1.1"
   id="svg1"
   inkscape:version="1.3.2 (091e20e, 2023-11-25, custom)"
   sodipodi:docname="check-up.svg"
   xmlns:inkscape="http://www.inkscape.org/namespaces/inkscape"
   xmlns:sodipodi="http://sodipodi.sourceforge.net/DTD/sodipodi-0.dtd"
   xmlns="http://www.w3.org/2000/svg"
   xmlns:svg="http://www.w3.org/2000/svg">
  <sodipodi:namedview
     id="namedview1"
     pagecolor="#ffffff"
     bordercolor="#000000"
     borderopacity="0.25"
     inkscape:showpageshadow="2"
     inkscape:pageopacity="0.0"
     inkscape:pagecheckerboard="0"
     inkscape:deskcolor="#d1d1d1"
     inkscape:document-units="mm"
     inkscape:zoom="2.9255612"
     inkscape:cx="-2.7345181"
     inkscape:cy="49.050419"
     inkscape:window-width="1920"
     inkscape:window-height="1017"
     inkscape:window-x="-8"
     inkscape:window-y="-8"
     inkscape:window-maximized="1"
     inkscape:current-layer="svg1" />
  <defs
     id="defs1">
    <inkscape:path-effect
       effect="fillet_chamfer"
       id="path-effect2"
       is_visible="true"
       lpeversion="1"
       nodesatellites_param="F,0,0,1,0,0,0,1 @ F,0,0,1,0,0,0,1 @ F,0,0,1,0,0,0,1 @ F,0,0,1,0,0,0,1 @ F,0,0,1,0,0,0,1 @ F,0,0,1,0,0,0,1 @ F,0,0,1,0,0,0,1 @ F,0,0,1,0,0,0,1 @ F,0,0,1,0,0,0,1 @ F,0,0,1,0,0,0,1 @ F,0,0,1,0,0,0,1 @ F,0,0,1,0,0,0,1 @ F,0,0,1,0,0,0,1 @ F,0,0,1,0,0,0,1 @ F,0,0,1,0,0,0,1 @ F,0,0,1,0,0,0,1 @ F,0,0,1,0,0,0,1 @ F,0,0,1,0,0,0,1 @ F,0,0,1,0,0,0,1 @ F,0,0,1,0,0,0,1"
       radius="0"
       unit="px"
       method="auto"
       mode="F"
       chamfer_steps="1"
       flexible="false"
       use_knot_distance="true"
       apply_no_radius="true"
       apply_with_radius="true"
       only_selected="false"
       hide_knots="false" />
    <inkscape:path-effect
       effect="bspline"
       id="path-effect1"
       is_visible="true"
       lpeversion="1.3"
       weight="33.333333"
       steps="2"
       helper_size="0"
       apply_no_weight="true"
       apply_with_weight="true"
       only_selected="false"
       uniform="false" />
  </defs>
  <path
     style="fill:#00ff00;stroke-width:0.264583;opacity:1;stroke:#000000;stroke-opacity:1"
     d="m 10.114038,13.369823 c 0.437119,-0.19595 1.311358,-0.58785 1.823844,-1.130488 0.512486,-0.542638 0.663214,-1.235986 1.266148,-0.979731 0.602934,0.256254 1.658028,1.462077 2.260953,2.140367 0.602925,0.67829 0.753653,0.829018 1.040045,0.331595 0.286393,-0.497423 0.708431,-1.642955 1.642976,-2.818667 0.934546,-1.1757126 2.381533,-2.3815349 3.527095,-2.9995316 1.145563,-0.6179967 1.989639,-0.6481425 2.502125,-0.5878486 0.512487,0.060294 0.69336,0.2110215 0.587845,0.4521942 -0.105516,0.2411726 -0.497408,0.5727737 -0.527551,0.8893116 -0.03014,0.3165379 0.301458,0.6179929 0.527556,0.7687239 0.226097,0.1507309 0.34668,0.1507309 -0.376844,0.5426389 -0.723523,0.3919076 -2.291093,1.1756936 -3.210553,2.2911156 -0.919461,1.115422 -1.190771,2.562409 -1.462089,3.496944 -0.271318,0.934536 -0.542628,1.356574 -0.663213,2.004725 -0.120584,0.648151 -0.09044,1.522372 -0.331612,1.838904 -0.241175,0.316533 -0.753649,0.07537 -1.356579,0.07537 -0.60293,2e-6 -1.296278,0.241167 -1.853987,-0.376845 C 14.952489,18.690591 14.530451,17.213459 13.580833,16.113117 12.631214,15.012775 11.154081,14.289281 10.4155,13.927527 9.6769193,13.565773 9.6769183,13.565773 10.114038,13.369823 Z"
     id="path1"
     inkscape:path-effect="#path-effect1"
     inkscape:original-d="m 9.6769183,13.565773 c 0.8742387,-0.3919 1.7484777,-0.7838 2.6227157,-1.1757 0.150734,-0.693376 0.301462,-1.386724 0.452193,-2.080085 1.055137,1.20587 2.110231,2.411693 3.165347,3.617539 0.150734,0.150734 0.301462,0.301462 0.452192,0.452193 0.422055,-1.145577 0.844093,-2.291109 1.266139,-3.436663 1.447045,-1.2058705 2.894032,-2.4116929 4.341048,-3.6175394 0.844109,-0.030147 1.688185,-0.060293 2.532277,-0.090439 0.180881,0.150734 0.361754,0.3014618 0.542631,0.4521925 -0.391908,0.3316145 -0.7838,0.6632157 -1.1757,0.9948233 0.331615,0.3014678 0.663215,0.6029232 0.994823,0.904385 0.120587,0 0.24117,0 0.361754,0 -1.567631,0.7838166 -3.135201,1.5676006 -4.702801,2.3514016 -0.271321,1.447044 -0.542631,2.894031 -0.813946,4.341047 -0.271321,0.422055 -0.542631,0.844093 -0.813947,1.266139 0.03015,0.874256 0.06029,1.748477 0.09044,2.622716 -0.512496,-0.241174 -1.02497,-0.482339 -1.537455,-0.723508 -0.693375,0.241174 -1.386723,0.482339 -2.080085,0.723508 -0.422055,-1.477192 -0.844092,-2.954324 -1.266139,-4.431486 -1.477191,-0.723522 -2.954324,-1.447016 -4.4314857,-2.170524 z"
     transform="translate(-9.8165531,-7.3041048)"
     inkscape:label="path1" />
</svg>
